<?xml version="1.0" encoding="UTF-8" standalone="no"?>
<!-- Generator: Adobe Illustrator 27.5.0, SVG Export Plug-In . SVG Version: 6.00 Build 0)  -->

<svg
   version="1.1"
   id="Camada_1"
   x="0px"
   y="0px"
   viewBox="0 0 1000 1000"
   style="enable-background:new 0 0 1000 1000;"
   xml:space="preserve"
   sodipodi:docname="doors.svg"
   inkscape:version="1.4 (e7c3feb100, 2024-10-09)"
   xmlns:inkscape="http://www.inkscape.org/namespaces/inkscape"
   xmlns:sodipodi="http://sodipodi.sourceforge.net/DTD/sodipodi-0.dtd"
   xmlns="http://www.w3.org/2000/svg"
   xmlns:svg="http://www.w3.org/2000/svg"><defs
   id="defs94" /><sodipodi:namedview
   id="namedview94"
   pagecolor="#ffffff"
   bordercolor="#000000"
   borderopacity="0.25"
   inkscape:showpageshadow="2"
   inkscape:pageopacity="0.0"
   inkscape:pagecheckerboard="0"
   inkscape:deskcolor="#d1d1d1"
   inkscape:zoom="2.202263"
   inkscape:cx="388.23701"
   inkscape:cy="227.03919"
   inkscape:window-width="1910"
   inkscape:window-height="996"
   inkscape:window-x="5"
   inkscape:window-y="42"
   inkscape:window-maximized="1"
   inkscape:current-layer="Camada_1" />
<g
   id="g63"
   inkscape:export-filename="door-ready.png"
   inkscape:export-xdpi="96"
   inkscape:export-ydpi="96">
	<g
   id="g62">
		<rect
   x="220.664"
   y="66.287"
   style="fill:#f9f9f9;fill-opacity:1"
   width="190.982"
   height="332.31"
   id="rect1" />
		
		
		
		
		<g
   id="g94"
   transform="translate(0,15.493973)"><path
     style="fill:#888888;fill-opacity:1"
     d="m 386.2,254.519 h -1.105 c -3.83,0 -6.934,-3.105 -6.934,-6.934 v -29.714 c 0,-3.83 3.104,-6.934 6.934,-6.934 h 1.105 c 3.83,0 6.934,3.105 6.934,6.934 v 29.714 c 0,3.829 -3.104,6.934 -6.934,6.934 z"
     id="path1" /><path
     style="fill:#8a8c8e"
     d="m 385.247,230.998 h -22.46 c -1.477,0 -2.674,-1.197 -2.674,-2.674 v 0 c 0,-1.477 1.197,-2.674 2.674,-2.674 h 22.46 c 1.477,0 2.674,1.197 2.674,2.674 v 0 c -10e-4,1.477 -1.198,2.674 -2.674,2.674 z"
     id="path2" /><path
     style="fill:#bcbec0"
     d="m 385.38,229.92 h -22.46 c -1.477,0 -2.674,-1.197 -2.674,-2.674 v 0 c 0,-1.477 1.197,-2.674 2.674,-2.674 h 22.46 c 1.477,0 2.674,1.197 2.674,2.674 v 0 c 0,1.477 -1.197,2.674 -2.674,2.674 z"
     id="path3" /><path
     style="fill:#1d1714"
     d="m 387.573,236.605 c 0,0.886 -0.718,1.604 -1.604,1.604 -0.886,0 -1.604,-0.718 -1.604,-1.604 0,-0.886 0.718,-1.604 1.604,-1.604 0.886,0 1.604,0.718 1.604,1.604 z"
     id="path4" /><polygon
     style="fill:#1d1714"
     points="384.661,240.255 387.276,240.255 386.923,237.539 385.017,237.539 "
     id="polygon4" /></g>
		
		<rect
   x="177.35"
   y="398.596"
   style="fill:#000000;fill-opacity:1"
   width="277.612"
   height="12.872"
   id="rect61" />
	<rect
   x="269.39828"
   y="157.52242"
   style="fill:#ffd759;fill-opacity:1;stroke:#000000;stroke-width:1.467;stroke-linejoin:bevel;stroke-dasharray:none;stroke-opacity:1"
   width="93.943329"
   height="31.28068"
   id="rect4" /></g>
	<polygon
   style="fill:#404040;fill-opacity:1"
   points="426.319,51.331 220.362,51.331 205.407,51.331 205.407,398.596 220.362,398.596    220.362,66.287 411.344,66.287 411.344,398.596 426.299,398.596 426.299,51.352 426.299,51.352  "
   id="polygon62" />
</g>



</svg>
